<?xml version="1.0"?>
<svg xmlns="http://www.w3.org/2000/svg" id="Capa_1" enable-background="new 0 0 512 512" height="512px" viewBox="0 0 512 512" width="512px" class=""><g><g><circle cx="376" cy="75" r="15" data-original="#000000" class="active-path" data-old_color="#000000" fill="#FFFFFF"/><circle cx="436" cy="75" r="15" data-original="#000000" class="active-path" data-old_color="#000000" fill="#FFFFFF"/><path d="m436 0h-60c-41.355 0-75 33.645-75 75 0 7.141.984 14.119 2.934 20.853l-16.887 16.887c-18.147-31.493-52.163-52.74-91.047-52.74-57.897 0-105 47.103-105 105v91c0 41.527 24.234 77.498 59.3 94.521-1.923 6.068-7.605 10.479-14.3 10.479h-30c-57.969 0-106 47.866-106 106v30c0 8.284 6.716 15 15 15h361c8.284 0 15-6.716 15-15v-30c0-58.448-47.103-106-105-106h-30c-6.695 0-12.377-4.411-14.3-10.479 35.066-17.023 59.3-52.994 59.3-94.521v-91c0-5.093-.372-10.099-1.076-15h136.076c41.459 0 76-33.535 76-75 0-41.458-34.535-75-76-75zm-240 90c24.484 0 46.262 11.796 59.959 30h-16.164c-27.513 0-52.087 13.904-64.134 36.286-7.873 14.627-23.07 23.714-39.661 23.714h-15v-15c0-41.355 33.645-75 75-75zm165 377v15h-331v-15c0-41.196 34.804-76 76-76h16.509c6.968 34.192 37.271 60 73.491 60s66.522-25.808 73.491-60h16.509c41.355 0 75 34.094 75 76zm-121.586-79.181c-5.205 19.096-22.691 33.181-43.414 33.181s-38.209-14.085-43.414-33.181c12.47-4.964 22.216-15.34 26.309-28.22 5.568.917 11.281 1.401 17.105 1.401s11.537-.484 17.105-1.401c4.093 12.88 13.839 23.256 26.309 28.22zm31.586-131.819c0 41.355-33.645 75-75 75s-75-33.645-75-75v-46h15c27.646 0 52.965-15.134 66.077-39.496 6.704-12.456 21.509-20.504 37.717-20.504h29.696c.988 4.848 1.509 9.864 1.509 15v91zm165-136h-113.787l9.696-9.696c4.414-4.414 5.633-11.1 3.061-16.788-2.635-5.824-3.97-12.054-3.97-18.516 0-24.813 20.187-45 45-45h60c24.935 0 46 20.608 46 45s-21.065 45-46 45z" data-original="#000000" class="active-path" data-old_color="#000000" fill="#FFFFFF"/></g></g> </svg>
